<?xml version="1.0" encoding="UTF-8"?>
<svg width="54px" height="54px" viewBox="0 0 54 54" version="1.1" xmlns="http://www.w3.org/2000/svg" xmlns:xlink="http://www.w3.org/1999/xlink">
    <title>2BEAF232-D2F5-4BCA-B35E-18A38F079822</title>
    <defs>
        <filter id="filter-1">
            <feColorMatrix in="SourceGraphic" type="matrix" values="0 0 0 0 0.501961 0 0 0 0 0.000000 0 0 0 0 0.000000 0 0 0 1.000000 0"></feColorMatrix>
        </filter>
    </defs>
    <g id="Page-1" stroke="none" stroke-width="1" fill="none" fill-rule="evenodd">
        <g id="Trademark----Spanish-version" transform="translate(-39.000000, -1239.000000)" filter="url(#filter-1)">
            <g transform="translate(39.000000, 1239.000000)">
                <path d="M23.2772854,38.7391304 L23.2772854,29.7353091 L27.8032704,29.7353091 L32.4897514,38.7391304 L36.8391909,38.7391304 L36.8391909,38.5304857 L31.5909742,28.7883832 C32.93914,28.2212976 33.9903883,27.4107931 34.7447191,26.3568699 C35.49905,25.3029467 35.8762154,23.9949049 35.8762154,22.4327446 C35.8762154,20.1430027 35.143284,18.3935971 33.6774212,17.1845279 C32.2115585,15.9754586 30.1304613,15.3709239 27.4341298,15.3709239 L19.2167385,15.3709239 L19.2167385,38.7391304 L23.2772854,38.7391304 Z M23.2772854,26.4772418 L23.2772854,18.6450408 L27.5625265,18.6450408 C28.9748907,18.6664402 30.0368387,19.0195312 30.7483706,19.7043139 C31.4599026,20.3890965 31.8156685,21.3574219 31.8156685,22.6092901 C31.8156685,23.8076596 31.4304783,24.7519107 30.6600979,25.4420431 C29.8897174,26.1321756 28.8197446,26.4772418 27.4501794,26.4772418 L23.2772854,26.4772418 Z" id="R" fill="#800000" fill-rule="nonzero"></path>
                <path d="M27,0 C41.9116882,0 54,12.0883118 54,27 C54,41.9116882 41.9116882,54 27,54 C12.0883118,54 0,41.9116882 0,27 C0,12.0883118 12.0883118,0 27,0 Z M27,1.5 C12.9167389,1.5 1.5,12.9167389 1.5,27 C1.5,41.0832611 12.9167389,52.5 27,52.5 C41.0832611,52.5 52.5,41.0832611 52.5,27 C52.5,12.9167389 41.0832611,1.5 27,1.5 Z" id="Oval" fill="#800000" fill-rule="nonzero"></path>
            </g>
        </g>
    </g>
</svg>